<svg width="52" height="52" viewBox="0 0 52 52" fill="none" xmlns="http://www.w3.org/2000/svg">
    <rect x="0.5" y="0.5" width="51" height="51" rx="15.5" fill="white" stroke="#EEC302"/>
    <path d="M17.637 42.9998H12.4548C11.5385 42.9998 10.6598 42.6416 10.0119 42.004C9.36399 41.3663 9 40.5015 9 39.5998V27.6999C9 26.7981 9.36399 25.9334 10.0119 25.2957C10.6598 24.6581 11.5385 24.2999 12.4548 24.2999H17.637M29.7289 20.8999V14.1C29.7289 12.7474 29.1829 11.4502 28.2111 10.4937C27.2392 9.53732 25.9211 9 24.5467 9L17.637 24.2999V42.9998H37.1222C37.9554 43.0091 38.7639 42.7217 39.3988 42.1906C40.0337 41.6595 40.4521 40.9205 40.5771 40.1098L42.9609 24.8099C43.036 24.3226 43.0026 23.8251 42.863 23.3517C42.7234 22.8784 42.4808 22.4406 42.1522 22.0687C41.8236 21.6968 41.4167 21.3996 40.9598 21.1978C40.5029 20.996 40.0068 20.8943 39.5061 20.8999H29.7289Z" stroke="#EFC81A" stroke-width="2" stroke-linecap="round" stroke-linejoin="round"/>
</svg>
