<svg width="50" height="316" viewBox="0 0 50 316" fill="none" xmlns="http://www.w3.org/2000/svg">
<circle cx="5.89939" cy="310.046" r="5.89939" transform="rotate(-90 5.89939 310.046)" fill="#E6E6E6"/>
<circle cx="43.9179" cy="310.046" r="5.89939" transform="rotate(-90 43.9179 310.046)" fill="#E6E6E6"/>
<circle cx="5.89939" cy="157.973" r="5.89939" transform="rotate(-90 5.89939 157.973)" fill="#E6E6E6"/>
<circle cx="43.9175" cy="157.973" r="5.89939" transform="rotate(-90 43.9175 157.973)" fill="#E6E6E6"/>
<circle cx="5.89939" cy="5.89935" r="5.89939" transform="rotate(-90 5.89939 5.89935)" fill="#E6E6E6"/>
<circle cx="43.9175" cy="5.89935" r="5.89939" transform="rotate(-90 43.9175 5.89935)" fill="#E6E6E6"/>
<circle cx="5.89939" cy="234.009" r="5.89939" transform="rotate(-90 5.89939 234.009)" fill="#E6E6E6"/>
<circle cx="43.9175" cy="234.009" r="5.89939" transform="rotate(-90 43.9175 234.009)" fill="#E6E6E6"/>
<circle cx="5.89939" cy="81.9359" r="5.89939" transform="rotate(-90 5.89939 81.9359)" fill="#E6E6E6"/>
<circle cx="43.9175" cy="81.9359" r="5.89939" transform="rotate(-90 43.9175 81.9359)" fill="#E6E6E6"/>
<circle cx="5.89939" cy="272.027" r="5.89939" transform="rotate(-90 5.89939 272.027)" fill="#E6E6E6"/>
<circle cx="43.9175" cy="272.027" r="5.89939" transform="rotate(-90 43.9175 272.027)" fill="#E6E6E6"/>
<circle cx="5.89939" cy="119.954" r="5.89939" transform="rotate(-90 5.89939 119.954)" fill="#E6E6E6"/>
<circle cx="43.9175" cy="119.954" r="5.89939" transform="rotate(-90 43.9175 119.954)" fill="#E6E6E6"/>
<circle cx="5.89939" cy="195.991" r="5.89939" transform="rotate(-90 5.89939 195.991)" fill="#E6E6E6"/>
<circle cx="43.9175" cy="195.991" r="5.89939" transform="rotate(-90 43.9175 195.991)" fill="#E6E6E6"/>
<circle cx="5.89939" cy="43.9176" r="5.89939" transform="rotate(-90 5.89939 43.9176)" fill="#E6E6E6"/>
<circle cx="43.9175" cy="43.9176" r="5.89939" transform="rotate(-90 43.9175 43.9176)" fill="#E6E6E6"/>
</svg>
