<svg width="182" height="182" viewBox="0 0 182 182" fill="none" xmlns="http://www.w3.org/2000/svg">
<g clip-path="url(#clip0_10655_33)">
<path d="M74.3168 41.9465C77.2615 41.9465 79.6488 39.5592 79.6488 36.6146C79.6488 33.1367 80.3679 32.1603 81.8011 30.2141C85.8057 24.7759 88.251 20.2309 88.251 13.1696C88.251 9.19058 86.9834 5.75752 85.879 3.21169C84.707 0.510172 81.5661 -0.73075 78.8657 0.442279C76.1642 1.61424 74.9243 4.75405 76.0959 7.45557C76.7901 9.05586 77.5871 11.1517 77.5871 13.1693C77.5871 17.6264 75.9487 20.1755 73.2142 23.8904C71.3299 26.4494 68.9852 29.6336 68.9852 36.6142C68.9849 39.5592 71.3722 41.9465 74.3168 41.9465V41.9465Z" fill="#EFC81A"/>
<path d="M99.0808 41.9467C102.025 41.9467 104.413 39.5594 104.413 36.6147C104.413 33.1372 105.132 32.1604 106.565 30.2143C110.576 24.7672 113.015 20.2169 113.015 13.1698C113.015 9.19111 111.747 5.75841 110.643 3.21222C109.472 0.510348 106.331 -0.729508 103.63 0.442099C100.928 1.61406 99.6886 4.75387 100.86 7.45539C101.554 9.05604 102.351 11.1518 102.351 13.1695C102.351 17.6231 100.717 20.1696 97.9785 23.8909C96.0942 26.4496 93.7495 29.6338 93.7495 36.6144C93.7488 39.5594 96.1361 41.9467 99.0808 41.9467V41.9467Z" fill="#EFC81A"/>
<path d="M123.088 148.606L117.735 129.742C114.463 131.19 111.091 132.369 107.651 133.271L112.831 151.524C108.452 154.539 105.574 159.585 105.574 165.292C105.574 174.504 113.068 181.999 122.28 181.999C131.492 181.999 138.987 174.504 138.987 165.292C138.987 156.351 131.926 149.029 123.088 148.606V148.606Z" fill="#EFC81A"/>
<path d="M90.9998 124.769C111.678 124.769 129.913 113.255 140.506 95.8496H41.4937C52.0865 113.255 70.3214 124.769 90.9998 124.769V124.769Z" fill="#EFC81A"/>
<path d="M159.249 51.5439H22.751C19.8063 51.5439 17.419 53.9312 17.419 56.8759C17.419 59.8206 19.8063 62.2078 22.751 62.2078H31.8039C31.9685 70.3263 33.5396 78.0768 36.2632 85.1857H145.737C148.461 78.0768 150.031 70.3263 150.196 62.2078H159.249C162.193 62.2078 164.581 59.8206 164.581 56.8759C164.581 53.9312 162.193 51.5439 159.249 51.5439Z" fill="#EFC81A"/>
<path d="M54.5328 175.429C53.7345 178.774 56.2707 182 59.7237 182C62.1348 182 64.3212 180.353 64.9056 177.904L75.4885 133.566C72.0263 132.724 68.6287 131.599 65.3272 130.206L54.5328 175.429Z" fill="#EFC81A"/>
<path d="M85.6679 135.206V176.667C85.6679 179.611 88.0552 181.999 90.9999 181.999C93.9445 181.999 96.3318 179.611 96.3318 176.667V135.206C92.6407 135.508 89.3665 135.509 85.6679 135.206V135.206Z" fill="#EFC81A"/>
</g>
<defs>
<clipPath id="clip0_10655_33">
<rect width="182" height="182" fill="white"/>
</clipPath>
</defs>
</svg>
