<svg width="182" height="224" viewBox="0 0 182 224" fill="none" xmlns="http://www.w3.org/2000/svg">
<g clip-path="url(#clip0_59_10)">
<path d="M74.3169 41.9465C77.2616 41.9465 79.6489 39.5592 79.6489 36.6146C79.6489 33.1367 80.368 32.1603 81.8012 30.2141C85.8059 24.7759 88.2511 20.2309 88.2511 13.1696C88.2511 9.19058 86.9835 5.75752 85.8791 3.21169C84.7071 0.510172 81.5663 -0.73075 78.8658 0.442279C76.1643 1.61424 74.9244 4.75405 76.096 7.45557C76.7903 9.05586 77.5872 11.1517 77.5872 13.1693C77.5872 17.6264 75.9489 20.1755 73.2143 23.8904C71.33 26.4494 68.9854 29.6336 68.9854 36.6142C68.985 39.5592 71.3723 41.9465 74.3169 41.9465Z" fill="white"/>
<path d="M99.0807 41.9464C102.025 41.9464 104.413 39.5592 104.413 36.6145C104.413 33.137 105.132 32.1602 106.565 30.214C110.576 24.7669 113.015 20.2166 113.015 13.1696C113.015 9.19087 111.747 5.75816 110.643 3.21198C109.472 0.510103 106.331 -0.729752 103.63 0.441854C100.928 1.61382 99.6886 4.75362 100.86 7.45514C101.554 9.05579 102.351 11.1516 102.351 13.1692C102.351 17.6228 100.717 20.1693 97.9785 23.8907C96.0941 26.4493 93.7495 29.6336 93.7495 36.6141C93.7488 39.5592 96.1361 41.9464 99.0807 41.9464Z" fill="white"/>
<path d="M123.088 148.606L117.735 129.742C114.462 131.191 111.09 132.369 107.651 133.271L112.831 151.525C108.451 154.54 105.573 159.585 105.573 165.292C105.573 174.504 113.068 181.999 122.28 181.999C131.492 181.999 138.987 174.504 138.987 165.292C138.987 156.351 131.926 149.029 123.088 148.606Z" fill="white"/>
<path d="M90.9997 124.769C111.678 124.769 129.913 113.255 140.505 95.8496H41.4937C52.0865 113.255 70.3214 124.769 90.9997 124.769Z" fill="white"/>
<path d="M159.249 51.5439H22.7509C19.8062 51.5439 17.4189 53.9312 17.4189 56.8759C17.4189 59.8205 19.8062 62.2078 22.7509 62.2078H31.8038C31.9684 70.3263 33.5396 78.0768 36.2631 85.1857H145.737C148.46 78.0768 150.031 70.3263 150.196 62.2078H159.249C162.193 62.2078 164.581 59.8205 164.581 56.8759C164.581 53.9312 162.193 51.5439 159.249 51.5439Z" fill="white"/>
<path d="M54.5326 175.429C53.7342 178.774 56.2704 182 59.7234 182C62.1345 182 64.321 180.353 64.9053 177.904L75.4882 133.566C72.026 132.724 68.6285 131.599 65.3269 130.206L54.5326 175.429Z" fill="white"/>
<path d="M85.668 135.206V176.667C85.668 179.612 88.0553 181.999 90.9999 181.999C93.9446 181.999 96.3319 179.612 96.3319 176.667V135.206C92.6407 135.508 89.3666 135.509 85.668 135.206Z" fill="white"/>
</g>
<path d="M35.17 219V206.22H37.69L41.722 213.6L45.772 206.22H48.202V219H45.61V210.918L42.64 216.336H40.732L37.762 210.918V219H35.17ZM53.3053 219.27C52.8133 219.27 52.3633 219.198 51.9553 219.054C51.5473 218.91 51.1873 218.706 50.8753 218.442C50.5753 218.166 50.3413 217.848 50.1733 217.488C50.0053 217.128 49.9213 216.732 49.9213 216.3C49.9213 215.7 50.0833 215.172 50.4073 214.716C50.7313 214.26 51.1873 213.906 51.7753 213.654C52.3633 213.39 53.0473 213.258 53.8273 213.258C54.2233 213.258 54.5953 213.294 54.9433 213.366C55.3033 213.438 55.6513 213.54 55.9873 213.672V213.114C55.9873 212.574 55.8313 212.136 55.5193 211.8C55.2193 211.464 54.8053 211.296 54.2773 211.296C53.8813 211.296 53.5213 211.398 53.1973 211.602C52.8733 211.794 52.6453 212.07 52.5133 212.43L50.2633 211.98C50.3953 211.428 50.6533 210.948 51.0373 210.54C51.4333 210.12 51.9133 209.796 52.4773 209.568C53.0413 209.34 53.6533 209.226 54.3133 209.226C54.9253 209.226 55.4833 209.322 55.9873 209.514C56.4913 209.706 56.9233 209.982 57.2833 210.342C57.6553 210.702 57.9373 211.128 58.1293 211.62C58.3333 212.1 58.4353 212.64 58.4353 213.24V219H56.1853L56.1133 217.884C55.8613 218.292 55.4953 218.628 55.0153 218.892C54.5353 219.144 53.9653 219.27 53.3053 219.27ZM52.4053 216.174C52.4053 216.51 52.5433 216.786 52.8193 217.002C53.0953 217.218 53.4613 217.326 53.9173 217.326C54.3133 217.326 54.6673 217.242 54.9793 217.074C55.2913 216.906 55.5373 216.678 55.7173 216.39C55.8973 216.09 55.9873 215.76 55.9873 215.4V215.31C55.7233 215.202 55.4413 215.118 55.1413 215.058C54.8413 214.986 54.5413 214.95 54.2413 214.95C53.6773 214.95 53.2273 215.064 52.8913 215.292C52.5673 215.508 52.4053 215.802 52.4053 216.174ZM60.4435 219V209.496H62.7655L62.8375 210.702C63.1135 210.246 63.4855 209.886 63.9535 209.622C64.4215 209.358 64.9495 209.226 65.5375 209.226C66.1735 209.226 66.7375 209.382 67.2295 209.694C67.7335 210.006 68.1235 210.438 68.3995 210.99C68.6875 210.462 69.1015 210.036 69.6415 209.712C70.1935 209.388 70.8235 209.226 71.5315 209.226C72.2395 209.226 72.8515 209.394 73.3675 209.73C73.8835 210.054 74.2795 210.522 74.5555 211.134C74.8435 211.746 74.9875 212.466 74.9875 213.294V219H72.4675V213.618C72.4675 212.958 72.3235 212.442 72.0355 212.07C71.7475 211.686 71.3455 211.494 70.8295 211.494C70.4695 211.494 70.1455 211.584 69.8575 211.764C69.5815 211.932 69.3655 212.172 69.2095 212.484C69.0535 212.796 68.9755 213.15 68.9755 213.546V219H66.4555V213.618C66.4555 212.958 66.3115 212.442 66.0235 212.07C65.7355 211.686 65.3335 211.494 64.8175 211.494C64.4575 211.494 64.1335 211.584 63.8455 211.764C63.5695 211.932 63.3535 212.172 63.1975 212.484C63.0415 212.796 62.9635 213.15 62.9635 213.546V219H60.4435ZM79.9361 219.27C79.4441 219.27 78.9941 219.198 78.5861 219.054C78.1781 218.91 77.8181 218.706 77.5061 218.442C77.2061 218.166 76.9721 217.848 76.8041 217.488C76.6361 217.128 76.5521 216.732 76.5521 216.3C76.5521 215.7 76.7141 215.172 77.0381 214.716C77.3621 214.26 77.8181 213.906 78.4061 213.654C78.9941 213.39 79.6781 213.258 80.4581 213.258C80.8541 213.258 81.2261 213.294 81.5741 213.366C81.9341 213.438 82.2821 213.54 82.6181 213.672V213.114C82.6181 212.574 82.4621 212.136 82.1501 211.8C81.8501 211.464 81.4361 211.296 80.9081 211.296C80.5121 211.296 80.1521 211.398 79.8281 211.602C79.5041 211.794 79.2761 212.07 79.1441 212.43L76.8941 211.98C77.0261 211.428 77.2841 210.948 77.6681 210.54C78.0641 210.12 78.5441 209.796 79.1081 209.568C79.6721 209.34 80.2841 209.226 80.9441 209.226C81.5561 209.226 82.1141 209.322 82.6181 209.514C83.1221 209.706 83.5541 209.982 83.9141 210.342C84.2861 210.702 84.5681 211.128 84.7601 211.62C84.9641 212.1 85.0661 212.64 85.0661 213.24V219H82.8161L82.7441 217.884C82.4921 218.292 82.1261 218.628 81.6461 218.892C81.1661 219.144 80.5961 219.27 79.9361 219.27ZM79.0361 216.174C79.0361 216.51 79.1741 216.786 79.4501 217.002C79.7261 217.218 80.0921 217.326 80.5481 217.326C80.9441 217.326 81.2981 217.242 81.6101 217.074C81.9221 216.906 82.1681 216.678 82.3481 216.39C82.5281 216.09 82.6181 215.76 82.6181 215.4V215.31C82.3541 215.202 82.0721 215.118 81.7721 215.058C81.4721 214.986 81.1721 214.95 80.8721 214.95C80.3081 214.95 79.8581 215.064 79.5221 215.292C79.1981 215.508 79.0361 215.802 79.0361 216.174ZM90.9981 219V206.22H95.1021C96.1461 206.22 97.0461 206.388 97.8021 206.724C98.5701 207.048 99.1581 207.522 99.5661 208.146C99.9741 208.758 100.178 209.484 100.178 210.324C100.178 210.816 100.088 211.29 99.9081 211.746C99.7281 212.19 99.4761 212.598 99.1521 212.97C98.8281 213.33 98.4381 213.63 97.9821 213.87L100.88 219H97.9281L95.6421 214.572C95.4141 214.584 95.1681 214.59 94.9041 214.59C94.5201 214.59 94.1001 214.554 93.6441 214.482V219H90.9981ZM93.6441 208.488V212.25C93.8721 212.286 94.1001 212.316 94.3281 212.34C94.5561 212.352 94.7961 212.358 95.0481 212.358C95.8161 212.358 96.4101 212.19 96.8301 211.854C97.2501 211.506 97.4601 211.026 97.4601 210.414C97.4601 209.802 97.2501 209.328 96.8301 208.992C96.4101 208.656 95.8161 208.488 95.0481 208.488H93.6441ZM106.463 219.27C105.755 219.27 105.101 219.15 104.501 218.91C103.913 218.658 103.403 218.31 102.971 217.866C102.539 217.41 102.203 216.876 101.963 216.264C101.723 215.64 101.603 214.962 101.603 214.23C101.603 213.522 101.723 212.862 101.963 212.25C102.203 211.638 102.533 211.11 102.953 210.666C103.385 210.21 103.889 209.856 104.465 209.604C105.041 209.352 105.665 209.226 106.337 209.226C107.033 209.226 107.663 209.346 108.227 209.586C108.803 209.826 109.295 210.168 109.703 210.612C110.111 211.056 110.423 211.584 110.639 212.196C110.867 212.808 110.981 213.492 110.981 214.248V214.878H104.159C104.267 215.586 104.525 216.144 104.933 216.552C105.341 216.948 105.857 217.146 106.481 217.146C106.913 217.146 107.303 217.044 107.651 216.84C108.011 216.636 108.305 216.342 108.533 215.958L110.783 216.678C110.567 217.218 110.243 217.68 109.811 218.064C109.379 218.448 108.875 218.748 108.299 218.964C107.723 219.168 107.111 219.27 106.463 219.27ZM106.337 211.17C105.785 211.17 105.317 211.35 104.933 211.71C104.561 212.07 104.315 212.562 104.195 213.186H108.389C108.293 212.562 108.059 212.07 107.687 211.71C107.327 211.35 106.877 211.17 106.337 211.17ZM117.043 219.27C116.359 219.27 115.723 219.15 115.135 218.91C114.559 218.658 114.055 218.31 113.623 217.866C113.203 217.422 112.873 216.9 112.633 216.3C112.393 215.688 112.273 215.028 112.273 214.32C112.273 213.6 112.393 212.934 112.633 212.322C112.885 211.698 113.227 211.158 113.659 210.702C114.103 210.234 114.619 209.874 115.207 209.622C115.795 209.358 116.431 209.226 117.115 209.226C117.799 209.226 118.429 209.358 119.005 209.622C119.581 209.874 120.067 210.234 120.463 210.702C120.871 211.17 121.153 211.716 121.309 212.34L118.915 212.808C118.735 212.4 118.483 212.082 118.159 211.854C117.835 211.614 117.469 211.494 117.061 211.494C116.629 211.494 116.245 211.614 115.909 211.854C115.585 212.094 115.327 212.43 115.135 212.862C114.943 213.282 114.847 213.756 114.847 214.284C114.847 214.812 114.937 215.28 115.117 215.688C115.309 216.096 115.573 216.42 115.909 216.66C116.245 216.888 116.629 217.002 117.061 217.002C117.493 217.002 117.883 216.888 118.231 216.66C118.579 216.432 118.837 216.108 119.005 215.688L121.399 216.156C121.243 216.792 120.949 217.344 120.517 217.812C120.097 218.28 119.587 218.64 118.987 218.892C118.387 219.144 117.739 219.27 117.043 219.27ZM125.616 206.922C125.616 207.198 125.55 207.444 125.418 207.66C125.298 207.876 125.124 208.05 124.896 208.182C124.68 208.302 124.44 208.362 124.176 208.362C123.912 208.362 123.666 208.302 123.438 208.182C123.222 208.05 123.048 207.876 122.916 207.66C122.796 207.444 122.736 207.198 122.736 206.922C122.736 206.646 122.796 206.4 122.916 206.184C123.048 205.968 123.222 205.8 123.438 205.68C123.666 205.548 123.912 205.482 124.176 205.482C124.44 205.482 124.68 205.548 124.896 205.68C125.124 205.8 125.298 205.968 125.418 206.184C125.55 206.4 125.616 206.646 125.616 206.922ZM122.916 219V209.496H125.436V219H122.916ZM127.451 222.492V209.496H129.773L129.845 210.882C130.169 210.366 130.601 209.964 131.141 209.676C131.681 209.376 132.275 209.226 132.923 209.226C133.547 209.226 134.123 209.352 134.651 209.604C135.179 209.856 135.641 210.21 136.037 210.666C136.433 211.11 136.739 211.632 136.955 212.232C137.183 212.832 137.297 213.486 137.297 214.194C137.297 214.914 137.183 215.58 136.955 216.192C136.727 216.804 136.409 217.344 136.001 217.812C135.593 218.268 135.113 218.628 134.561 218.892C134.009 219.144 133.415 219.27 132.779 219.27C132.191 219.27 131.657 219.156 131.177 218.928C130.697 218.688 130.295 218.358 129.971 217.938V222.492H127.451ZM132.329 217.002C132.785 217.002 133.193 216.882 133.553 216.642C133.913 216.402 134.195 216.078 134.399 215.67C134.615 215.25 134.723 214.776 134.723 214.248C134.723 213.72 134.615 213.252 134.399 212.844C134.195 212.424 133.913 212.094 133.553 211.854C133.193 211.614 132.785 211.494 132.329 211.494C131.873 211.494 131.465 211.614 131.105 211.854C130.745 212.094 130.457 212.424 130.241 212.844C130.037 213.252 129.935 213.72 129.935 214.248C129.935 214.776 130.037 215.25 130.241 215.67C130.457 216.078 130.745 216.402 131.105 216.642C131.465 216.882 131.873 217.002 132.329 217.002ZM143.535 219.27C142.827 219.27 142.173 219.15 141.573 218.91C140.985 218.658 140.475 218.31 140.043 217.866C139.611 217.41 139.275 216.876 139.035 216.264C138.795 215.64 138.675 214.962 138.675 214.23C138.675 213.522 138.795 212.862 139.035 212.25C139.275 211.638 139.605 211.11 140.025 210.666C140.457 210.21 140.961 209.856 141.537 209.604C142.113 209.352 142.737 209.226 143.409 209.226C144.105 209.226 144.735 209.346 145.299 209.586C145.875 209.826 146.367 210.168 146.775 210.612C147.183 211.056 147.495 211.584 147.711 212.196C147.939 212.808 148.053 213.492 148.053 214.248V214.878H141.231C141.339 215.586 141.597 216.144 142.005 216.552C142.413 216.948 142.929 217.146 143.553 217.146C143.985 217.146 144.375 217.044 144.723 216.84C145.083 216.636 145.377 216.342 145.605 215.958L147.855 216.678C147.639 217.218 147.315 217.68 146.883 218.064C146.451 218.448 145.947 218.748 145.371 218.964C144.795 219.168 144.183 219.27 143.535 219.27ZM143.409 211.17C142.857 211.17 142.389 211.35 142.005 211.71C141.633 212.07 141.387 212.562 141.267 213.186H145.461C145.365 212.562 145.131 212.07 144.759 211.71C144.399 211.35 143.949 211.17 143.409 211.17ZM151.039 219.072C150.739 219.072 150.469 219 150.229 218.856C150.001 218.712 149.815 218.52 149.671 218.28C149.527 218.04 149.455 217.776 149.455 217.488C149.455 217.2 149.527 216.936 149.671 216.696C149.815 216.456 150.001 216.264 150.229 216.12C150.469 215.976 150.739 215.904 151.039 215.904C151.339 215.904 151.603 215.976 151.831 216.12C152.071 216.264 152.263 216.456 152.407 216.696C152.551 216.936 152.623 217.2 152.623 217.488C152.623 217.776 152.551 218.04 152.407 218.28C152.263 218.52 152.071 218.712 151.831 218.856C151.603 219 151.339 219.072 151.039 219.072Z" fill="white"/>
<defs>
<clipPath id="clip0_59_10">
<rect width="182" height="182" fill="white"/>
</clipPath>
</defs>
</svg>
